<svg xmlns="http://www.w3.org/2000/svg" viewBox="0 0 600 600" role="img" aria-labelledby="title desc">
  <title id="title">Profile avatar illustration</title>
  <desc id="desc">A friendly developer avatar illustration with a blue gradient background.</desc>
  <defs>
    <linearGradient id="background" x1="0" y1="0" x2="1" y2="1">
      <stop offset="0" stop-color="#2563eb"/>
      <stop offset="1" stop-color="#7c3aed"/>
    </linearGradient>
    <linearGradient id="shirt" x1="0" y1="0" x2="1" y2="1">
      <stop offset="0" stop-color="#0f172a"/>
      <stop offset="1" stop-color="#334155"/>
    </linearGradient>
  </defs>
  <circle cx="300" cy="300" r="300" fill="url(#background)"/>
  <circle cx="300" cy="235" r="112" fill="#f4c7a1"/>
  <path d="M184 232c4-92 52-143 119-143 74 0 112 57 112 139-30-27-55-46-103-51-38 39-79 57-128 55Z" fill="#1e293b"/>
  <path d="M166 530c18-111 73-163 134-163s116 52 134 163" fill="url(#shirt)"/>
  <path d="M255 355h90l-13 55h-64Z" fill="#e6ad85"/>
  <circle cx="259" cy="236" r="10" fill="#1e293b"/>
  <circle cx="341" cy="236" r="10" fill="#1e293b"/>
  <path d="M268 286c22 19 42 19 64 0" fill="none" stroke="#9a4f4f" stroke-linecap="round" stroke-width="8"/>
  <path d="M201 210c18-25 42-36 69-39M331 171c28 4 50 17 68 41" fill="none" stroke="#1e293b" stroke-linecap="round" stroke-width="13"/>
  <circle cx="445" cy="125" r="26" fill="#bfdbfe" opacity=".8"/>
  <circle cx="126" cy="410" r="34" fill="#c4b5fd" opacity=".6"/>
</svg>
